<svg width="219" height="92" xmlns="http://www.w3.org/2000/svg">
 <defs>
  <clipPath id="a">
   <path id="svg_1" d="m159,0.79l25,0l0,68.21l-25,0l0,-68.21zm0,0"/>
  </clipPath>
  <clipPath id="b">
   <path id="svg_2" d="m183,9l35.371,0l0,60l-35.371,0l0,-60zm0,0"/>
  </clipPath>
  <clipPath id="c">
   <path id="svg_3" d="m0,0.79l92,0l0,91.21l-92,0l0,-91.21zm0,0"/>
  </clipPath>
 </defs>
 <g>
  <title>Layer 1</title>
  <path id="svg_4" fill="#fff" fill-rule="nonzero" d="m76.871,32.836c-4.785,0 -8.351,2.352 -8.351,8.008c0,4.261 2.347,7.222 8.093,7.222c4.871,0 8.18,-2.867 8.18,-7.398c0,-5.133 -2.961,-7.832 -7.922,-7.832zm-9.57,39.95c-1.133,1.39 -2.262,2.87 -2.262,4.612c0,3.48 4.434,4.524 10.527,4.524c5.051,0 11.926,-0.352 11.926,-5.043c0,-2.793 -3.308,-2.965 -7.488,-3.227l-12.703,-0.866zm25.761,-39.688c1.563,2.004 3.22,4.789 3.22,8.793c0,9.656 -7.571,15.316 -18.536,15.316c-2.789,0 -5.312,-0.348 -6.879,-0.785l-2.87,4.613l8.526,0.52c15.059,0.96 23.934,1.398 23.934,12.968c0,10.008 -8.789,15.665 -23.934,15.665c-15.75,0 -21.757,-4.004 -21.757,-10.88c0,-3.917 1.742,-6 4.789,-8.878c-2.875,-1.211 -3.828,-3.387 -3.828,-5.739c0,-1.914 0.953,-3.656 2.523,-5.312c1.566,-1.652 3.305,-3.305 5.395,-5.219c-4.262,-2.09 -7.485,-6.617 -7.485,-13.058c0,-10.008 6.613,-16.88 19.93,-16.88c3.742,0 6.004,0.344 8.008,0.872l16.972,0l0,7.394l-8.007,0.61"/>
  <g id="svg_5" clip-path="url(#a)">
   <path id="svg_6" fill="#fff" fill-rule="nonzero" d="m116.379,17.281c-4.961,0 -7.832,-2.87 -7.832,-7.836c0,-4.957 2.871,-7.656 7.832,-7.656c5.05,0 7.922,2.7 7.922,7.656c0,4.965 -2.871,7.836 -7.922,7.836zm-11.227,52.305l0,-6.876l4.438,-0.606c1.219,-0.175 1.394,-0.437 1.394,-1.746l0,-25.585c0,-0.953 -0.261,-1.566 -1.132,-1.824l-4.7,-1.656l0.957,-7.047l18.016,0l0,36.114c0,1.399 0.086,1.57 1.395,1.746l4.437,0.606l0,6.875l-24.805,0"/>
  </g>
  <g id="svg_7" clip-path="url(#b)">
   <path id="svg_8" fill="#fff" fill-rule="nonzero" d="m164.371,66.21c-3.742,1.825 -9.223,3.481 -14.187,3.481c-10.356,0 -14.27,-4.175 -14.27,-14.015l0,-22.797c0,-0.524 0,-0.871 -0.7,-0.871l-6.093,0l0,-7.746c7.664,-0.871 10.707,-4.703 11.664,-14.188l8.27,0l0,12.36c0,0.609 0,0.87 0.695,0.87l12.27,0l0,8.704l-12.965,0l0,20.797c0,5.136 1.218,7.136 5.918,7.136c2.437,0 4.96,-0.609 7.047,-1.39l2.351,7.66"/>
  </g>
 </g>
</svg>