<?xml version="1.0" encoding="UTF-8"?>
<svg xmlns="http://www.w3.org/2000/svg" version="1.1" viewBox="0 0 221.9 50">
  <defs>
    <style>
      .cls-1 {
        fill: #fff;
      }
    </style>
  </defs>
  <!-- Generator: Adobe Illustrator 28.6.0, SVG Export Plug-In . SVG Version: 1.2.0 Build 709)  -->
  <g>
    <g id="Layer_1">
      <path class="cls-1" d="M79.9,14.8c-8.6,0-14.8,5.6-14.8,14.1s7,14.1,15.6,14.1,9.8-2.1,12.6-5.5l-6-3.5c-1.6,1.7-4,2.7-6.7,2.7s-6.9-2-8.1-5.1h21.9c.2-.9.3-1.8.3-2.7,0-8.5-6.2-14.1-14.8-14.1ZM72.5,26.1c1-3.1,3.6-5.1,7.4-5.1s6.4,2,7.4,5.1h-14.8ZM70.7,6.2l-21.6,37.5L27.4,6.2h8.1l13.5,23.4,13.6-23.4h8.1ZM126.1,28.9c0,4.7,3.1,7.8,7.8,7.8s5.6-1.5,6.9-3.8l6,3.5c-2.5,4.1-7.1,6.6-12.9,6.6-8.6,0-14.8-5.6-14.8-14.1s6.2-14.1,14.8-14.1,10.4,2.5,12.9,6.6l-6,3.5c-1.2-2.4-3.7-3.8-6.9-3.8-4.7,0-7.8,3.1-7.8,7.8ZM190.6,6.2v35.9h-7V6.2h7ZM164,14.8c-8.6,0-14.8,5.6-14.8,14.1s7,14.1,15.6,14.1,9.8-2.1,12.6-5.5l-6-3.5c-1.6,1.7-4,2.7-6.7,2.7s-6.9-2-8.1-5.1h21.9c.2-.9.3-1.8.3-2.7,0-8.5-6.2-14.1-14.8-14.1ZM156.6,26.1c1-3.1,3.6-5.1,7.4-5.1s6.4,2,7.4,5.1h-14.8ZM116.8,15.6v7.6c-.8-.2-1.6-.4-2.5-.4-4.5,0-7.8,3.1-7.8,7.8v11.6h-7V15.6h7v7.2c0-4,4.6-7.2,10.3-7.2Z"/>
    </g>
  </g>
</svg>